<?xml version="1.0" encoding="UTF-8" standalone="no"?>
<svg
   xmlns:dc="http://purl.org/dc/elements/1.1/"
   xmlns:cc="http://creativecommons.org/ns#"
   xmlns:rdf="http://www.w3.org/1999/02/22-rdf-syntax-ns#"
   xmlns:svg="http://www.w3.org/2000/svg"
   xmlns="http://www.w3.org/2000/svg"
   xmlns:sodipodi="http://sodipodi.sourceforge.net/DTD/sodipodi-0.dtd"
   xmlns:inkscape="http://www.inkscape.org/namespaces/inkscape"
   id="Capa_1"
   enable-background="new 0 0 512 512"
   height="512"
   viewBox="0 0 512 512"
   width="512"
   version="1.1"
   sodipodi:docname="basket.svg"
   inkscape:version="0.92.3 (2405546, 2018-03-11)">
  <metadata
     id="metadata17">
    <rdf:RDF>
      <cc:Work
         rdf:about="">
        <dc:format>image/svg+xml</dc:format>
        <dc:type
           rdf:resource="http://purl.org/dc/dcmitype/StillImage" />
      </cc:Work>
    </rdf:RDF>
  </metadata>
  <defs
     id="defs15" />
  <sodipodi:namedview
     pagecolor="#ffffff"
     bordercolor="#666666"
     borderopacity="1"
     objecttolerance="10"
     gridtolerance="10"
     guidetolerance="10"
     inkscape:pageopacity="0"
     inkscape:pageshadow="2"
     inkscape:window-width="1600"
     inkscape:window-height="851"
     id="namedview13"
     showgrid="false"
     inkscape:zoom="1.2747803"
     inkscape:cx="257.5689"
     inkscape:cy="256"
     inkscape:window-x="0"
     inkscape:window-y="25"
     inkscape:window-maximized="1"
     inkscape:current-layer="g10" />
  <g
     id="g10">
    <path
       d="m337.034 420.796c.835.139 1.665.207 2.484.207 7.2 0 13.555-5.2 14.778-12.537l15-90c1.362-8.171-4.158-15.9-12.33-17.262-8.172-1.366-15.9 4.158-17.262 12.33l-15 90c-1.362 8.172 4.158 15.901 12.33 17.262z"
       id="path2"
       style="fill:#4d4d4d;fill-opacity:1" />
    <path
       d="m158.704 408.466c1.223 7.337 7.577 12.537 14.778 12.537.819 0 1.649-.067 2.484-.207 8.172-1.362 13.692-9.09 12.33-17.262l-15-90c-1.362-8.172-9.089-13.691-17.262-12.33-8.172 1.362-13.692 9.09-12.33 17.262z"
       id="path4"
       style="fill:#4d4d4d;fill-opacity:1" />
    <path
       d="m497 181h-52.791l-115.496-144.37c-5.174-6.467-14.613-7.518-21.083-2.342-6.469 5.175-7.518 14.614-2.342 21.083l100.503 125.629h-299.582l100.504-125.629c5.175-6.469 4.126-15.909-2.342-21.083-6.47-5.176-15.909-4.126-21.083 2.342l-115.497 144.37h-52.791c-8.284 0-15 6.716-15 15v60c0 8.284 6.716 15 15 15h18.686l56.892 199.121c1.839 6.44 7.725 10.879 14.422 10.879h302c6.697 0 12.583-4.439 14.423-10.879l56.891-199.121h18.686c8.284 0 15-6.716 15-15v-60c0-8.284-6.716-15-15-15zm-101.314 270h-279.372l-51.428-180h382.229zm86.314-210c-51.385 0-403.32 0-452 0v-30h452z"
       id="path6"
       style="fill:#4d4d4d" />
    <path
       d="m256 421c8.284 0 15-6.716 15-15v-90c0-8.284-6.716-15-15-15s-15 6.716-15 15v90c0 8.285 6.716 15 15 15z"
       id="path8"
       style="fill:#4d4d4d;fill-opacity:1" />
  </g>
</svg>
