<?xml version="1.0" encoding="UTF-8" standalone="no"?>
<svg
   xmlns:dc="http://purl.org/dc/elements/1.1/"
   xmlns:cc="http://creativecommons.org/ns#"
   xmlns:rdf="http://www.w3.org/1999/02/22-rdf-syntax-ns#"
   xmlns:svg="http://www.w3.org/2000/svg"
   xmlns="http://www.w3.org/2000/svg"
   xmlns:sodipodi="http://sodipodi.sourceforge.net/DTD/sodipodi-0.dtd"
   xmlns:inkscape="http://www.inkscape.org/namespaces/inkscape"
   version="1.0"
   width="178.000000pt"
   height="152.000000pt"
   viewBox="0 0 178.000000 152.000000"
   preserveAspectRatio="xMidYMid meet"
   id="svg10"
   sodipodi:docname="pelle-fourchette.svg"
   inkscape:version="0.92.3 (2405546, 2018-03-11)">
  <defs
     id="defs14" />
  <sodipodi:namedview
     pagecolor="#ffffff"
     bordercolor="#666666"
     borderopacity="1"
     objecttolerance="10"
     gridtolerance="10"
     guidetolerance="10"
     inkscape:pageopacity="0"
     inkscape:pageshadow="2"
     inkscape:window-width="792"
     inkscape:window-height="480"
     id="namedview12"
     showgrid="false"
     inkscape:zoom="1.1644737"
     inkscape:cx="118.66667"
     inkscape:cy="101.33333"
     inkscape:window-x="0"
     inkscape:window-y="25"
     inkscape:window-maximized="0"
     inkscape:current-layer="svg10" />
  <metadata
     id="metadata2">
Created by potrace 1.16, written by Peter Selinger 2001-2019
<rdf:RDF>
  <cc:Work
     rdf:about="">
    <dc:format>image/svg+xml</dc:format>
    <dc:type
       rdf:resource="http://purl.org/dc/dcmitype/StillImage" />
  </cc:Work>
</rdf:RDF>
</metadata>
  <g
     transform="translate(0.000000,152.000000) scale(0.100000,-0.100000)"
     fill="#000000"
     stroke="none"
     id="g8"
     style="fill:#666666;fill-opacity:1">
    <path
       d="M447 1332 c-9 -10 -17 -23 -17 -28 0 -5 68 -77 150 -159 83 -82 150 -157 150 -165 0 -9 -5 -21 -12 -28 -10 -10 -47 22 -175 150 l-163 163 -22 -23 -23 -22 163 -163 163 -163 -24 -22 -24 -23 -30 33 c-16 18 -89 91 -161 163 l-132 129 -22 -22 -22 -21 163 -161 c133 -133 160 -164 150 -176 -26 -32 -53 -14 -206 138 l-153 152 -22 -22 -23 -22 145 -146 c80 -80 157 -152 172 -160 48 -25 93 -18 139 23 l40 37 77 -77 77 -77 -213 -213 c-116 -117 -212 -219 -212 -228 0 -19 31 -49 50 -49 8 0 180 165 382 367 l368 368 68 -68 c37 -37 72 -67 78 -67 6 0 48 39 93 86 155 161 202 340 115 443 -34 41 -82 54 -170 49 -108 -7 -180 -46 -288 -155 -47 -48 -86 -90 -86 -93 0 -3 20 -25 44 -49 l44 -43 53 40 c41 31 57 38 67 30 11 -9 -20 -45 -150 -175 -89 -90 -167 -163 -173 -163 -5 0 -42 32 -82 72 l-72 72 34 38 c28 31 35 46 35 80 0 41 -4 46 -163 206 -157 158 -163 163 -180 144z"
       id="path4"
       style="fill:#666666;fill-opacity:1" />
    <path
       d="M937 582 c-15 -15 -27 -32 -27 -38 0 -17 385 -394 403 -394 25 0 58 37 50 57 -6 18 -382 403 -394 403 -3 0 -17 -13 -32 -28z"
       id="path6"
       style="fill:#666666;fill-opacity:1" />
  </g>
</svg>
